# xmcd
#
# Track frame offsets: 
#        150
#        13754
#        32429
#        48426
#        77445
#        108026
#        132333
#        148893
#        168522
#        200979
#        238747
#        255434
#        270412
#        288992
#        311649
#        325972
#
# Disc length: 4567 seconds
#
# Revision: 0
# Processed by: cddbd v1.5.2PL0 Copyright (c) Steve Scherf et al.
# Submitted via: ExactAudioCopy v0.99pb4
#
DISCID=e011d510
DTITLE=Rickey Calloway - King of Funk
DYEAR=1977
DGENRE=Funk
TTITLE0=Tell Me
TTITLE1=About to Lose It
TTITLE2=Shed A Tear
TTITLE3=Groove Master
TTITLE4=Get the Groove
TTITLE5=That's the Way
TTITLE6=Paying My Dues
TTITLE7=A Letter
TTITLE8=Get It Right
TTITLE9=I'm In Love
TTITLE10=Shake It Up Part 1
TTITLE11=Shake It Up Part 2
TTITLE12=Get It Right 2011
TTITLE13=The Feeling with Bozeman and Williams
TTITLE14=The Feeling
TTITLE15=Loving You Is Wrong
EXTD=
EXTT0=
EXTT1=
EXTT2=
EXTT3=
EXTT4=
EXTT5=
EXTT6=
EXTT7=
EXTT8=
EXTT9=
EXTT10=
EXTT11=
EXTT12=
EXTT13=
EXTT14=
EXTT15=
PLAYORDER=
